#!OML:ASF F:\VICON\USERDATA\INSTALL\rory3\rory3.ASF
:FULLY-SPECIFIED
:DEGREES
2693
root 4.18591 17.9702 4.03591 895.417 235.406 -174.109
lowerback 10.6677 -5.5705 -4.17497
upperback 1.29694 -7.74352 5.85303
thorax -3.2008 -3.85267 9.52179
lowerneck 8.91637 -20.3204 -15.4755
upperneck 34.8753 -37.413 10.4176
head 16.4641 -18.018 1.14495
rclavicle -5.48646e-014 3.49861e-014
rhumerus -35.4856 -10.918 -75.5735
rradius 37.8078
rwrist 2.17352
rhand -15.3651 7.67239
rfingers 7.12502
rthumb 10.8126 -22.0293
lclavicle -5.48646e-014 3.49861e-014
lhumerus -39.1151 10.8225 77.2297
lradius 40.1088
lwrist -3.32721
lhand -17.9631 26.7064
lfingers 7.12502
lthumb 8.30595 56.5231
rfemur -0.196363 15.1498 16.7494
rtibia 41.5573
rfoot -7.88345 -4.14444
rtoes -8.68992
lfemur -12.0279 -2.54646 -20.5183
ltibia 18.2462
lfoot 178.301 -182.165
ltoes -14.3447
2694
root 4.26137 17.9602 3.90754 895.981 235.279 -174.51
lowerback 10.7599 -5.59547 -3.97856
upperback 1.15095 -7.74731 5.99938
thorax -3.41045 -3.84294 9.5962
lowerneck 8.87444 -20.2983 -15.5323
upperneck 34.9227 -37.3098 10.2742
head 16.4445 -17.9852 1.11843
rclavicle 1.09729e-013 -4.29375e-014
rhumerus -35.3455 -10.7585 -75.6028
rradius 37.4489
rwrist 2.10781
rhand -15.5805 7.81277
rfingers 7.12502
rthumb 10.6048 -21.8997
lclavicle 1.09729e-013 -4.29375e-014
lhumerus -39.341 10.9568 77.1427
lradius 40.2533
lwrist -3.27549
lhand -18.5874 26.5916
lfingers 7.12502
lthumb 7.70342 56.4313
rfemur 0.581711 15.0573 16.9972
rtibia 39.2687
rfoot -9.53662 -4.62362
rtoes -9.36659
lfemur -12.981 -2.63925 -19.9903
ltibia 18.5746
lfoot 178.631 -182.258
ltoes -14.7992
2695
root 4.3385 17.952 3.77756 896.466 235.187 -174.816
lowerback 10.8284 -5.56149 -3.77693
upperback 1.05443 -7.67274 6.08997
thorax -3.57825 -3.79715 9.59213
lowerneck 8.9614 -20.2711 -15.6718
upperneck 34.8112 -37.3235 10.4816
head 16.4698 -17.9957 1.20732
rclavicle 5.76476e-014 -9.54166e-015
rhumerus -35.2987 -10.436 -75.6772
rradius 37.4125
rwrist 1.60696
rhand -15.6568 7.70663
rfingers 7.12502
rthumb 10.5313 -22.0095
lclavicle 5.76476e-014 -9.54166e-015
lhumerus -39.3953 11.0012 77.0399
lradius 40.3358
lwrist -3.23364
lhand -19.1275 26.6123
lfingers 7.12502
lthumb 7.18211 56.4705
rfemur 1.03737 14.8781 17.1247
rtibia 37.3902
rfoot -11.4229 -4.4866
rtoes -10.48
lfemur -14.0841 -2.69988 -19.5328
ltibia 19.1993
lfoot 178.807 -182.346
ltoes -15.2217
2696
root 4.41653 17.9438 3.65264 896.761 235.139 -174.954
lowerback 10.8829 -5.50205 -3.56622
upperback 1.01568 -7.56553 6.09713
thorax -3.69599 -3.73867 9.48124
lowerneck 8.93731 -20.2879 -15.7065
upperneck 34.8604 -37.3832 10.5394
head 16.5402 -18.0103 1.20632
rclavicle 4.6118e-014 -1.43125e-014
rhumerus -35.2066 -10.3307 -75.7414
rradius 37.3247
rwrist 1.55659
rhand -15.7655 7.66751
rfingers 7.12502
rthumb 10.4264 -22.054
lclavicle 4.6118e-014 -1.43125e-014
lhumerus -39.2795 11.0099 76.9062
lradius 40.3276
lwrist -3.23087
lhand -19.416 26.7346
lfingers 7.12502
lthumb 6.90363 56.602
rfemur 1.60962 14.4053 17.0895
rtibia 35.2592
rfoot -12.814 -4.09103
rtoes -10.6441
lfemur -14.8314 -2.85777 -19.1912
ltibia 19.2816
lfoot 179.307 -182.311
ltoes -14.8131
2697
root 4.49341 17.9417 3.52947 896.988 235.087 -175.025
lowerback 10.9383 -5.46193 -3.38498
upperback 0.99468 -7.48854 6.08138
thorax -3.78859 -3.69678 9.36317
lowerneck 8.86971 -20.3557 -15.5535
upperneck 34.8304 -37.3743 10.4288
head 16.4623 -17.9929 1.15797
rclavicle 7.39479e-014 -3.02153e-014
rhumerus -35.0137 -10.4836 -75.842
rradius 37.0828
rwrist 1.74556
rhand -16.0632 7.61906
rfingers 7.12502
rthumb 10.1392 -22.1166
lclavicle 7.39479e-014 -3.02153e-014
lhumerus -39.1766 11.0117 76.7258
lradius 40.357
lwrist -3.17066
lhand -19.232 26.9824
lfingers 7.12502
lthumb 7.08122 56.844
rfemur 2.07401 13.5806 16.983
rtibia 33.2738
rfoot -13.7906 -3.92075
rtoes -11.1168
lfemur -15.4862 -3.30638 -18.8734
ltibia 19.2727
lfoot 179.927 -181.905
ltoes -14.0611
2698
root 4.57485 17.9416 3.39804 897.466 234.958 -175.369
lowerback 11.0652 -5.47663 -3.13514
upperback 0.955079 -7.47448 6.14707
thorax -3.9263 -3.68604 9.31276
lowerneck 8.87814 -20.3333 -15.5911
upperneck 34.702 -37.3269 10.5651
head 16.4337 -17.9696 1.22384
rclavicle 3.02153e-014 -1.74931e-014
rhumerus -34.7168 -10.5768 -75.9942
rradius 36.7972
rwrist 1.76278
rhand -16.4 7.4347
rfingers 7.12502
rthumb 9.81429 -22.3166
lclavicle 3.02153e-014 -1.74931e-014
lhumerus -39.1662 11.1372 76.5422
lradius 40.4999
lwrist -3.03051
lhand -18.9505 27.1744
lfingers 7.12502
lthumb 7.35295 57.0267
rfemur 2.30784 12.4855 17.0454
rtibia 31.4714
rfoot -14.6094 -3.84772
rtoes -11.6606
lfemur -16.1927 -3.85772 -18.3492
ltibia 19.1796
lfoot 180.63 -181.476
ltoes -13.7847
2699
root 4.65845 17.9427 3.26774 898.153 234.813 -175.94
lowerback 11.1957 -5.48025 -2.7424
upperback 0.896141 -7.42497 6.26827
thorax -4.10324 -3.65831 9.24065
lowerneck 8.8261 -20.3378 -15.6492
upperneck 34.7305 -37.3448 10.6061
head 16.4892 -17.9683 1.22612
rclavicle 8.34896e-014 -5.24792e-014
rhumerus -34.5201 -10.5917 -76.0461
rradius 36.6394
rwrist 1.77501
rhand -16.5082 7.38947
rfingers 7.12502
rthumb 9.70984 -22.3667
lclavicle 8.34896e-014 -5.24792e-014
lhumerus -39.1683 11.2434 76.4865
lradius 40.5969
lwrist -2.97339
lhand -18.8312 27.0513
lfingers 7.12502
lthumb 7.46809 56.8995
rfemur 2.38492 11.2967 17.2638
rtibia 29.9018
rfoot -15.3834 -3.83704
rtoes -11.7124
lfemur -16.8954 -4.3265 -17.675
ltibia 18.9985
lfoot 181.283 -181.174
ltoes -12.9211
